<svg width="196" height="196" viewBox="0 0 196 196" fill="none" xmlns="http://www.w3.org/2000/svg">
<rect width="196" height="196" rx="30" fill="#22B07E"/>
<path d="M131 152C119.954 152 111 143.046 111 132L111 130C111 118.954 119.954 110 131 110L196 110L196 152L131 152Z" fill="#F6C008"/>
<path d="M30.8471 73.648C30.8471 74.992 30.5231 76.252 29.8751 77.428C29.2511 78.604 28.2551 79.552 26.8871 80.272C25.5431 80.992 23.8391 81.352 21.7751 81.352H17.5631V91H12.5231V65.872H21.7751C23.7191 65.872 25.3751 66.208 26.7431 66.88C28.1111 67.552 29.1311 68.476 29.8031 69.652C30.4991 70.828 30.8471 72.16 30.8471 73.648ZM21.5591 77.284C22.9511 77.284 23.9831 76.972 24.6551 76.348C25.3271 75.7 25.6631 74.8 25.6631 73.648C25.6631 71.2 24.2951 69.976 21.5591 69.976H17.5631V77.284H21.5591ZM49.8334 86.212H39.8254L38.1694 91H32.8774L41.9134 65.836H47.7814L56.8174 91H51.4894L49.8334 86.212ZM48.4654 82.18L44.8294 71.668L41.1934 82.18H48.4654ZM71.8589 91.252C69.5069 91.252 67.3469 90.7 65.3789 89.596C63.4109 88.492 61.8509 86.968 60.6989 85.024C59.5469 83.056 58.9709 80.836 58.9709 78.364C58.9709 75.916 59.5469 73.72 60.6989 71.776C61.8509 69.808 63.4109 68.272 65.3789 67.168C67.3469 66.064 69.5069 65.512 71.8589 65.512C74.2349 65.512 76.3949 66.064 78.3389 67.168C80.3069 68.272 81.8549 69.808 82.9829 71.776C84.1349 73.72 84.7109 75.916 84.7109 78.364C84.7109 80.836 84.1349 83.056 82.9829 85.024C81.8549 86.968 80.3069 88.492 78.3389 89.596C76.3709 90.7 74.2109 91.252 71.8589 91.252ZM71.8589 86.752C73.3709 86.752 74.7029 86.416 75.8549 85.744C77.0069 85.048 77.9069 84.064 78.5549 82.792C79.2029 81.52 79.5269 80.044 79.5269 78.364C79.5269 76.684 79.2029 75.22 78.5549 73.972C77.9069 72.7 77.0069 71.728 75.8549 71.056C74.7029 70.384 73.3709 70.048 71.8589 70.048C70.3469 70.048 69.0029 70.384 67.8269 71.056C66.6749 71.728 65.7749 72.7 65.1269 73.972C64.4789 75.22 64.1549 76.684 64.1549 78.364C64.1549 80.044 64.4789 81.52 65.1269 82.792C65.7749 84.064 66.6749 85.048 67.8269 85.744C69.0029 86.416 70.3469 86.752 71.8589 86.752ZM105.561 65.872V69.94H98.8646V91H93.8246V69.94H87.1286V65.872H105.561ZM114.206 65.872V81.424C114.206 83.128 114.65 84.436 115.538 85.348C116.426 86.236 117.674 86.68 119.282 86.68C120.914 86.68 122.174 86.236 123.062 85.348C123.95 84.436 124.394 83.128 124.394 81.424V65.872H129.47V81.388C129.47 83.524 129.002 85.336 128.066 86.824C127.154 88.288 125.918 89.392 124.358 90.136C122.822 90.88 121.106 91.252 119.21 91.252C117.338 91.252 115.634 90.88 114.098 90.136C112.586 89.392 111.386 88.288 110.498 86.824C109.61 85.336 109.166 83.524 109.166 81.388V65.872H114.206ZM155.831 91H150.791L139.379 73.756V91H134.339V65.836H139.379L150.791 83.116V65.836H155.831V91ZM178.308 73.432C177.732 72.376 176.94 71.572 175.932 71.02C174.924 70.468 173.748 70.192 172.404 70.192C170.916 70.192 169.596 70.528 168.444 71.2C167.292 71.872 166.392 72.832 165.744 74.08C165.096 75.328 164.772 76.768 164.772 78.4C164.772 80.08 165.096 81.544 165.744 82.792C166.416 84.04 167.34 85 168.516 85.672C169.692 86.344 171.06 86.68 172.62 86.68C174.54 86.68 176.112 86.176 177.336 85.168C178.56 84.136 179.364 82.708 179.748 80.884H171.108V77.032H184.716V81.424C184.38 83.176 183.66 84.796 182.556 86.284C181.452 87.772 180.024 88.972 178.272 89.884C176.544 90.772 174.6 91.216 172.44 91.216C170.016 91.216 167.82 90.676 165.852 89.596C163.908 88.492 162.372 86.968 161.244 85.024C160.14 83.08 159.588 80.872 159.588 78.4C159.588 75.928 160.14 73.72 161.244 71.776C162.372 69.808 163.908 68.284 165.852 67.204C167.82 66.1 170.004 65.548 172.404 65.548C175.236 65.548 177.696 66.244 179.784 67.636C181.872 69.004 183.312 70.936 184.104 73.432H178.308Z" fill="white"/>
<circle cx="134" cy="131" r="10" fill="#0E243C"/>
</svg>
